<svg width="31" height="32" viewBox="0 0 31 32" fill="none" xmlns="http://www.w3.org/2000/svg">
<path fill-rule="evenodd" clip-rule="evenodd" d="M4.53903 4.35217V22.2567H18.3824V20.9778H5.77577V5.63107H22.4717V6.9867H23.7084V4.35217H4.53903ZM23.7084 10.7466C23.7084 11.0858 23.5781 11.4111 23.3462 11.651C23.1142 11.8908 22.7997 12.0255 22.4717 12.0255C22.1437 12.0255 21.8291 11.8908 21.5972 11.651C21.3652 11.4111 21.2349 11.0858 21.2349 10.7466C21.2349 10.4075 21.3652 10.0822 21.5972 9.84233C21.8291 9.60249 22.1437 9.46775 22.4717 9.46775C22.7997 9.46775 23.1142 9.60249 23.3462 9.84233C23.5781 10.0822 23.7084 10.4075 23.7084 10.7466ZM24.9451 10.7466C24.9451 11.425 24.6845 12.0756 24.2207 12.5553C23.7568 13.035 23.1277 13.3044 22.4717 13.3044C21.8157 13.3044 21.1865 13.035 20.7227 12.5553C20.2588 12.0756 19.9982 11.425 19.9982 10.7466C19.9982 10.0683 20.2588 9.41769 20.7227 8.93802C21.1865 8.45834 21.8157 8.18886 22.4717 8.18886C23.1277 8.18886 23.7568 8.45834 24.2207 8.93802C24.6845 9.41769 24.9451 10.0683 24.9451 10.7466Z" fill="white"/>
<path fill-rule="evenodd" clip-rule="evenodd" d="M19.4372 14.4748C19.7821 14.1343 20.2405 13.9443 20.7173 13.944H23.2414C24.1467 13.944 24.9895 14.2625 25.6388 14.8968C26.2634 15.5068 26.5886 16.2889 26.7216 17.03C26.9306 18.1951 26.7142 19.4682 26.1818 20.5968V25.7738C26.1818 26.175 26.0359 26.5615 25.7732 26.8566C25.5104 27.1518 25.15 27.334 24.7634 27.367C24.3767 27.4001 23.9922 27.2817 23.6861 27.0352C23.38 26.7888 23.1747 26.4323 23.111 26.0366L22.7807 23.9878L22.4505 26.0366C22.3868 26.4323 22.1815 26.7888 21.8754 27.0352C21.5693 27.2817 21.1848 27.4001 20.7981 27.367C20.4115 27.334 20.0511 27.1518 19.7883 26.8566C19.5256 26.5615 19.3797 26.175 19.3797 25.7738V19.7585C19.0977 19.9269 18.7778 20.0156 18.4522 20.0156H15.2973C14.8053 20.0156 14.3334 19.8135 13.9855 19.4537C13.6376 19.094 13.4422 18.606 13.4422 18.0972C13.4422 17.5885 13.6376 17.1005 13.9855 16.7408C14.3334 16.381 14.8053 16.1789 15.2973 16.1789H17.7089L19.4372 14.4741V14.4748ZM20.6165 21.9211V25.7738C20.6167 25.8539 20.6459 25.931 20.6985 25.9898C20.751 26.0487 20.823 26.085 20.9002 26.0916C20.9774 26.0982 21.0542 26.0746 21.1153 26.0254C21.1765 25.9763 21.2176 25.9052 21.2305 25.8262L21.8755 21.8259C21.8995 21.6765 21.9739 21.5409 22.0855 21.443C22.1972 21.3451 22.3388 21.2914 22.4852 21.2913H23.0763C23.2227 21.2914 23.3643 21.3451 23.4759 21.443C23.5876 21.5409 23.662 21.6765 23.686 21.8259L24.331 25.8262C24.3439 25.9052 24.385 25.9763 24.4462 26.0254C24.5073 26.0746 24.5841 26.0982 24.6613 26.0916C24.7385 26.085 24.8105 26.0487 24.863 25.9898C24.9155 25.931 24.9448 25.8539 24.945 25.7738V20.4447C24.945 20.3423 24.9688 20.2414 25.0143 20.1505C25.4917 19.1977 25.6654 18.1535 25.5059 17.2634C25.4088 16.7224 25.1819 16.2096 24.7898 15.8266C24.3897 15.4359 23.8592 15.2229 23.2414 15.2229H20.7179C20.559 15.2229 20.4056 15.2862 20.2906 15.3994L18.3835 17.2807C18.2686 17.3942 18.1158 17.4577 17.9569 17.4578H15.2973C15.1333 17.4578 14.976 17.5252 14.86 17.6451C14.7441 17.765 14.6789 17.9276 14.6789 18.0972C14.6789 18.2668 14.7441 18.4295 14.86 18.5494C14.976 18.6693 15.1333 18.7367 15.2973 18.7367H18.4522C18.6111 18.7365 18.7639 18.6731 18.8788 18.5596L19.5714 17.8766C19.659 17.7903 19.7692 17.7324 19.8884 17.7102C20.0075 17.688 20.1303 17.7024 20.2416 17.7517C20.3529 17.801 20.4477 17.883 20.5143 17.9875C20.581 18.092 20.6165 18.2144 20.6165 18.3396V21.9218V21.9211Z" fill="white"/>
</svg>
