<svg width="26" height="26" viewBox="0 0 26 26" fill="none" xmlns="http://www.w3.org/2000/svg">
<path d="M19.2231 17.0398H20.7831V20.9397H19.2231V17.0398ZM16.1031 13.1398H17.6631V20.9397H16.1031V13.1398ZM9.08328 20.9397C8.04933 20.9384 7.05809 20.5272 6.32698 19.7961C5.59587 19.0649 5.18459 18.0737 5.18335 17.0398H6.74332C6.74332 17.5026 6.88056 17.955 7.13767 18.3398C7.39479 18.7246 7.76024 19.0245 8.18781 19.2016C8.61538 19.3787 9.08587 19.425 9.53978 19.3348C9.99369 19.2445 10.4106 19.0216 10.7379 18.6944C11.0651 18.3671 11.288 17.9502 11.3783 17.4963C11.4686 17.0424 11.4222 16.5719 11.2451 16.1443C11.068 15.7167 10.7681 15.3513 10.3833 15.0942C9.99848 14.837 9.54608 14.6998 9.08328 14.6998V13.1398C10.1176 13.1398 11.1096 13.5507 11.8409 14.2821C12.5723 15.0135 12.9832 16.0054 12.9832 17.0398C12.9832 18.0741 12.5723 19.066 11.8409 19.7974C11.1096 20.5288 10.1176 20.9397 9.08328 20.9397Z" fill="white"/>
<path d="M22.343 2.22009H3.62339C3.20978 2.22051 2.81324 2.38499 2.52078 2.67745C2.22831 2.96992 2.06383 3.36646 2.06342 3.78006V22.4997C2.06383 22.9133 2.22831 23.3099 2.52078 23.6023C2.81324 23.8948 3.20978 24.0593 3.62339 24.0597H22.343C22.7566 24.0591 23.153 23.8945 23.4454 23.6021C23.7378 23.3097 23.9024 22.9132 23.903 22.4997V3.78006C23.9026 3.36646 23.7381 2.96992 23.4456 2.67745C23.1532 2.38499 22.7566 2.22051 22.343 2.22009ZM22.343 9.23996H11.4232V3.78006H22.343V9.23996ZM9.86327 3.78006V9.23996H3.62339V3.78006H9.86327ZM3.62339 22.4997V10.7999H22.343L22.3446 22.4997H3.62339Z" fill="white"/>
</svg>
