<svg width="28" height="27" viewBox="0 0 28 27" fill="none" xmlns="http://www.w3.org/2000/svg">
<path d="M6.50428 2.33328C6.65282 2.40214 6.77816 2.51006 6.86588 2.64461C6.9536 2.77915 7.00013 2.93485 7.00012 3.09378C7.00012 4.02753 7.36412 4.56528 7.82028 5.22003L7.85412 5.26728C8.24145 5.82303 8.75012 6.5509 8.75012 7.59378C8.75012 8.65803 8.19362 9.59628 7.34545 10.1532C7.56828 10.3332 7.76545 10.5548 7.93578 10.8203C8.49112 11.6865 8.75012 13.0107 8.75012 14.9119C8.75012 16.8379 8.48178 19.1509 8.04428 20.9982C7.82728 21.9162 7.55778 22.7633 7.23695 23.3989C7.08548 23.7152 6.88484 24.0073 6.64195 24.2652C6.40162 24.5025 6.03178 24.7557 5.54178 24.7557C5.05178 24.7557 4.68195 24.5025 4.44278 24.2652C4.1992 24.0078 3.99848 23.7156 3.84778 23.3989C3.52578 22.7622 3.25628 21.9162 3.03928 20.997C2.58422 18.9976 2.34765 16.9577 2.33345 14.9108C2.33345 13.0095 2.59245 11.6865 3.14778 10.8203C3.30621 10.5688 3.50554 10.3436 3.73812 10.1532C3.30502 9.86961 2.95054 9.48808 2.70568 9.04193C2.46081 8.59577 2.33301 8.09856 2.33345 7.59378C2.33345 7.17978 2.33345 6.46765 2.78028 5.54853C3.21778 4.64853 4.04962 3.61465 5.57795 2.43453C5.70676 2.33517 5.86207 2.27295 6.02597 2.25503C6.18987 2.23712 6.35568 2.26424 6.50428 2.33328ZM4.08345 7.59265V7.59378C4.08345 7.96674 4.2371 8.32442 4.51059 8.58815C4.78408 8.85187 5.15501 9.00003 5.54178 9.00003C5.92856 9.00003 6.29949 8.85187 6.57298 8.58815C6.84647 8.32442 7.00012 7.96674 7.00012 7.59378C7.00012 7.0999 6.78428 6.7579 6.36778 6.16053L6.35378 6.14028C6.08662 5.75778 5.77045 5.3044 5.54645 4.72278C4.91295 5.34378 4.56295 5.85903 4.36578 6.26403C4.08345 6.84453 4.08345 7.2574 4.08345 7.59153V7.59265ZM4.63645 11.7068C4.34712 12.159 4.08345 13.086 4.08345 14.9119C4.08345 16.713 4.33778 18.9 4.74495 20.6224C4.95028 21.4887 5.18362 22.1918 5.42045 22.6598C5.46362 22.7464 5.50445 22.8184 5.54178 22.8792C5.57912 22.8184 5.61995 22.7464 5.66312 22.6598C5.89995 22.1918 6.13328 21.4875 6.33862 20.6224C6.74695 18.9012 7.00012 16.7142 7.00012 14.9119C7.00012 13.086 6.73645 12.159 6.44712 11.7068C6.35986 11.5545 6.22797 11.4305 6.06795 11.3502C5.90227 11.2806 5.72234 11.2483 5.54178 11.2557C5.30845 11.2557 5.14162 11.2905 5.01562 11.3502C4.8556 11.4305 4.72371 11.5545 4.63645 11.7068ZM11.6668 16.7828C11.0487 16.6828 10.4475 16.5027 9.87945 16.2473C9.9136 15.6092 9.92332 14.9702 9.90862 14.3314C10.4348 14.6723 11.0286 14.9232 11.6668 15.0627V11.8125C11.6668 11.365 11.8512 10.9358 12.1793 10.6193C12.5075 10.3028 12.9527 10.125 13.4168 10.125H18.0835C18.0834 9.18081 17.8095 8.25542 17.2927 7.45342C16.7759 6.65141 16.0368 6.00476 15.1589 5.58653C14.281 5.16829 13.2993 4.99513 12.3247 5.08663C11.3502 5.17812 10.4215 5.53061 9.64378 6.10428C9.41045 5.48215 9.07795 5.00628 8.84695 4.67553L8.80028 4.60803C9.84848 3.8955 11.0795 3.47435 12.359 3.39054C13.6386 3.30673 14.9174 3.56348 16.0559 4.13277C17.1944 4.70206 18.1488 5.56201 18.815 6.61874C19.4811 7.67547 19.8335 8.88836 19.8335 10.125H23.9168C24.3809 10.125 24.826 10.3028 25.1542 10.6193C25.4824 10.9358 25.6668 11.365 25.6668 11.8125V21.9375C25.6668 22.3851 25.4824 22.8143 25.1542 23.1308C24.826 23.4472 24.3809 23.625 23.9168 23.625H13.4168C12.9527 23.625 12.5075 23.4472 12.1793 23.1308C11.8512 22.8143 11.6668 22.3851 11.6668 21.9375V16.7817V16.7828ZM13.4168 16.8537V21.9387H23.9168V11.8137H19.6118C19.2483 13.1693 18.4569 14.3825 17.347 15.2854C16.2372 16.1884 14.8638 16.7364 13.4168 16.8537ZM17.7848 11.8137H13.4168V15.1583C14.397 15.0523 15.3265 14.6824 16.099 14.0909C16.8714 13.4995 17.4556 12.7103 17.7848 11.8137Z" fill="white"/>
</svg>
