<svg width="16" height="13" viewBox="0 0 16 13" fill="none" xmlns="http://www.w3.org/2000/svg">
<path d="M1.76837 0H14.2316C15.4074 0 16 0.639167 16 1.93917V11.0608C16 12.35 15.4074 13 14.2316 13H1.76837C0.592592 13 0 12.35 0 11.0608V1.93917C0 0.639167 0.592592 0 1.76837 0ZM7.9953 9.31667L14.3351 3.32583C14.5608 3.10917 14.7396 2.61083 14.4574 2.16667C14.1846 1.7225 13.6861 1.71167 13.3568 1.9825L7.9953 6.16417L2.64315 1.9825C2.31393 1.71167 1.8154 1.7225 1.54262 2.16667C1.26044 2.61083 1.43915 3.10917 1.6649 3.32583L7.9953 9.31667Z" fill="white"/>
</svg>
