<svg width="26" height="25" viewBox="0 0 26 25" fill="none" xmlns="http://www.w3.org/2000/svg">
<path d="M23.4512 2.62758C23.4425 2.58751 23.4222 2.55065 23.3925 2.52132C23.3628 2.492 23.325 2.47144 23.2836 2.46206C20.5221 1.81264 14.143 4.12661 10.6832 7.45083C10.0666 8.03884 9.5044 8.67732 9.00289 9.35903C7.93648 9.26626 6.87008 9.34438 5.96211 9.72524C3.39816 10.8092 2.65219 13.6403 2.44398 14.8556C2.4327 14.9222 2.43752 14.9904 2.45806 15.0549C2.47861 15.1194 2.51432 15.1785 2.56245 15.2276C2.61057 15.2767 2.66981 15.3145 2.73556 15.3381C2.80132 15.3616 2.87183 15.3703 2.94164 15.3634L7.05847 14.9289C7.06132 15.2274 7.07997 15.5257 7.11433 15.8224C7.13582 16.0275 7.23099 16.219 7.38347 16.3639L8.9775 17.8966C9.12833 18.0433 9.32768 18.1349 9.54117 18.1554C9.84793 18.1883 10.1562 18.2062 10.4649 18.2091L10.0134 22.1642C10.0064 22.2312 10.0155 22.2989 10.04 22.3621C10.0645 22.4252 10.1037 22.482 10.1547 22.5282C10.2057 22.5744 10.2671 22.6088 10.3341 22.6285C10.4011 22.6483 10.4719 22.653 10.5411 22.6422C11.8055 22.4469 14.7559 21.7296 15.8766 19.2648C16.2727 18.3908 16.354 17.3707 16.2626 16.3502C16.9736 15.8685 17.6396 15.3278 18.2527 14.7345C21.7251 11.4142 24.1164 5.41518 23.4512 2.62758ZM15.1662 10.4332C14.8629 10.1417 14.6563 9.77018 14.5726 9.36572C14.4889 8.96127 14.5318 8.54203 14.6959 8.16102C14.86 7.78002 15.138 7.45436 15.4946 7.22524C15.8512 6.99612 16.2704 6.87383 16.6993 6.87383C17.1282 6.87383 17.5474 6.99612 17.904 7.22524C18.2606 7.45436 18.5385 7.78002 18.7026 8.16102C18.8667 8.54203 18.9097 8.96127 18.826 9.36572C18.7422 9.77018 18.5357 10.1417 18.2324 10.4332C18.0312 10.6271 17.7922 10.7809 17.5292 10.8858C17.2661 10.9908 16.9841 11.0448 16.6993 11.0448C16.4145 11.0448 16.1325 10.9908 15.8694 10.8858C15.6063 10.7809 15.3674 10.6271 15.1662 10.4332V10.4332Z" stroke="white" stroke-width="1.53495" stroke-linecap="round" stroke-linejoin="round"/>
<path d="M5.56756 17.1875C5.06133 17.2473 4.59037 17.4679 4.22948 17.8145C3.33471 18.6777 3.24991 21.875 3.24991 21.875C3.24991 21.875 6.57709 21.7935 7.47237 20.9321C7.83422 20.5857 8.0641 20.1321 8.12491 19.6445" stroke="white" stroke-width="1.53495" stroke-linecap="round" stroke-linejoin="round"/>
</svg>
